<svg width="177" height="184" viewBox="0 0 177 184" fill="none" xmlns="http://www.w3.org/2000/svg">
<ellipse cx="88.5" cy="92" rx="88.5" ry="92" transform="matrix(-1 0 0 1 177 0)" fill="#EEFF03"/>
<path d="M103.631 134.431C103.631 138.449 103.758 143.524 103.892 147.781C104.071 153.44 105.313 159.361 109.673 162.974C112.074 164.964 115.143 166.479 118.627 165.86C126.847 164.399 130.124 147.627 131.7 134.431C131.741 134.09 131.781 133.735 131.821 133.369C132.848 123.896 131.224 112.214 125 105C120.91 100.259 113.447 97.8806 104.708 95.5195C94.1358 92.6631 77.7976 94.5796 72.7079 95.2876C71.6567 95.4338 70.6221 95.6632 69.6648 96.1215C66.0578 97.8481 61.0956 102.027 62.142 108.989C63.3416 116.971 68.6403 118.966 71.1396 118.966H91.1342C100.732 118.966 103.464 129.276 103.631 134.431Z" fill="black" stroke="black"/>
<path d="M129 36.9394V98C129 98.4312 119.331 95.1888 116.671 94.2883C116.265 94.1512 116 93.7731 116 93.3454V36.9394C116 35.6263 117.207 33 122.036 33C126.864 33 128.69 35.6263 129 36.9394Z" fill="black" stroke="black"/>
<path d="M83 20.5154V88.8437C83 89.4534 83.5399 89.9237 84.1453 89.8511C85.374 89.7037 87.373 89.5 89.0357 89.5C90.8171 89.5 93.4186 89.7338 94.8857 89.8816C95.4802 89.9415 96 89.4711 96 88.8736V20.5154C96 19.0102 94.7929 16 89.9643 16C85.1357 16 83.3095 19.0102 83 20.5154Z" fill="black" stroke="black"/>
<path d="M100.481 25.6452L100.007 89.9514C100.003 90.4884 100.423 90.9333 100.959 90.9657C102.295 91.0465 104.75 91.2213 106.5 91.5C108.148 91.7625 110.359 92.306 111.731 92.6617C112.371 92.8276 113 92.3695 113 91.7083V25.6452C113 24.0968 111.838 21 107.188 21C102.538 21 100.78 24.0968 100.481 25.6452Z" fill="black" stroke="black"/>
<path d="M65 30.0606L65.4862 91.2602C65.4923 92.0317 66.3408 92.5214 67.0301 92.1748C68.2532 91.56 70.0045 90.7803 71.5 90.5C73.2254 90.1766 75.6618 90.0615 77.0084 90.0211C77.5574 90.0047 78 89.557 78 89.0077V30.0606C78 28.7071 76.7929 26 71.9643 26C67.1357 26 65.3095 28.7071 65 30.0606Z" fill="black" stroke="black"/>
<path d="M99.2809 141.593C99.8731 146.055 99.8198 148.258 99.2809 153.244C97.4831 163.215 89.0677 171.536 79.3774 170.973C64.3803 170.585 50.5985 156.815 46.7863 149.681C45.7916 147.877 31.4679 125.639 27.1948 116.929C26.1565 114.812 25.6918 112.176 26.7746 110.082C27.2791 109.106 27.993 108.265 28.802 107.814C30.0144 107.041 33.5093 106.738 36.8305 107.261C48.1397 109.044 56.3447 127.464 57.901 128.675C59.4573 129.885 61.5384 128.675 61.5384 128.675C61.5384 128.675 64.7211 126.202 66.5398 125.43C68.3585 124.657 73.178 123.112 77.9066 123.112C84.8992 123.112 91.6972 127.387 95.7034 133.118C97.4094 135.559 98.8358 138.469 99.2809 141.593Z" fill="black" stroke="black"/>
</svg>
