<svg width="177" height="184" viewBox="0 0 177 184" fill="none" xmlns="http://www.w3.org/2000/svg">
<ellipse cx="88.5" cy="92" rx="88.5" ry="92" fill="#EEFF03"/>
<path d="M73.3692 134.431C73.3692 138.449 73.2424 143.524 73.1077 147.781C72.9286 153.44 71.6867 159.361 67.3269 162.974C64.9257 164.964 61.8567 166.479 58.3733 165.86C50.1526 164.399 46.8759 147.627 45.2995 134.431C45.2588 134.09 45.2185 133.735 45.1788 133.369C44.1515 123.896 45.776 112.214 52 105C56.0902 100.259 63.5532 97.8806 72.2923 95.5195C82.8642 92.6631 99.2024 94.5796 104.292 95.2876C105.343 95.4338 106.378 95.6632 107.335 96.1215C110.942 97.8481 115.904 102.027 114.858 108.989C113.658 116.971 108.36 118.966 105.86 118.966H85.8658C76.2684 118.966 73.5359 129.276 73.3692 134.431Z" fill="black" stroke="black"/>
<path d="M48 36.9394V98C48 98.4312 57.6686 95.1888 60.3294 94.2883C60.7345 94.1512 61 93.7731 61 93.3454V36.9394C61 35.6263 59.7929 33 54.9643 33C50.1357 33 48.3095 35.6263 48 36.9394Z" fill="black" stroke="black"/>
<path d="M94 20.5154V88.8437C94 89.4534 93.4601 89.9237 92.8547 89.8511C91.626 89.7037 89.627 89.5 87.9643 89.5C86.1829 89.5 83.5814 89.7338 82.1143 89.8816C81.5198 89.9415 81 89.4711 81 88.8736V20.5154C81 19.0102 82.2071 16 87.0357 16C91.8643 16 93.6905 19.0102 94 20.5154Z" fill="black" stroke="black"/>
<path d="M76.5185 25.6452L76.9929 89.9514C76.9969 90.4884 76.5772 90.9333 76.0412 90.9657C74.7051 91.0465 72.2503 91.2213 70.5 91.5C68.8515 91.7625 66.6411 92.306 65.2695 92.6617C64.6294 92.8276 64 92.3695 64 91.7083V25.6452C64 24.0968 65.1624 21 69.8122 21C74.4619 21 76.2205 24.0968 76.5185 25.6452Z" fill="black" stroke="black"/>
<path d="M112 30.0606L111.514 91.2602C111.508 92.0317 110.659 92.5214 109.97 92.1748C108.747 91.56 106.996 90.7803 105.5 90.5C103.775 90.1766 101.338 90.0615 99.9916 90.0211C99.4426 90.0047 99 89.557 99 89.0077V30.0606C99 28.7071 100.207 26 105.036 26C109.864 26 111.69 28.7071 112 30.0606Z" fill="black" stroke="black"/>
<path d="M77.7191 141.593C77.1269 146.055 77.1802 148.258 77.7191 153.244C79.5169 163.215 87.9323 171.536 97.6226 170.973C112.62 170.585 126.402 156.815 130.214 149.681C131.208 147.877 145.532 125.639 149.805 116.929C150.843 114.812 151.308 112.176 150.225 110.082C149.721 109.106 149.007 108.265 148.198 107.814C146.986 107.041 143.491 106.738 140.169 107.261C128.86 109.044 120.655 127.464 119.099 128.675C117.543 129.885 115.462 128.675 115.462 128.675C115.462 128.675 112.279 126.202 110.46 125.43C108.641 124.657 103.822 123.112 99.0934 123.112C92.1008 123.112 85.3028 127.387 81.2966 133.118C79.5906 135.559 78.1642 138.469 77.7191 141.593Z" fill="black" stroke="black"/>
</svg>
